<?xml version="1.0" encoding="UTF-8"?> <svg xmlns="http://www.w3.org/2000/svg" width="512" height="512" viewBox="0 0 512 512" fill="none"> <g clip-path="url(#clip0)"> <path d="M256 0C114.497 0 0 114.509 0 256C0 397.503 114.509 512 256 512C397.503 512 512 397.491 512 256C512 114.497 397.491 0 256 0Z" fill="#79CC64"></path> <path d="M391.515 161.929C384.85 155.264 374.043 155.264 367.379 161.929L215.442 313.866L144.622 243.047C137.957 236.382 127.15 236.382 120.486 243.047C113.821 249.712 113.821 260.518 120.486 267.183L203.373 350.07C210.037 356.734 220.847 356.732 227.509 350.07L391.515 186.064C398.18 179.399 398.18 168.594 391.515 161.929Z" fill="white"></path> </g> <defs> <clipPath id="clip0"> <rect width="512" height="512" fill="white"></rect> </clipPath> </defs> </svg> 