<?xml version="1.0" encoding="UTF-8"?> <svg xmlns="http://www.w3.org/2000/svg" width="75" height="60" viewBox="0 0 75 60"> <defs> <style> .cls-1 { fill: #79cc64; fill-rule: evenodd; opacity: 0.5; } </style> </defs> <path id="_" data-name="&quot;" class="cls-1" d="M456.694,5646.38a46.4,46.4,0,0,0-7.87,6.02q-11.829,11.3-11.831,27.07,0,9.6,4.6,15.57a14.45,14.45,0,0,0,11.99,5.96,15.549,15.549,0,0,0,11.461-4.85,15.965,15.965,0,0,0,4.807-11.67,13.573,13.573,0,0,0-2.377-8.31q-2.377-3.195-8.4-6.4-6.759-3.51-6.761-7.14,0-8.52,17.958-18.12l-2.112-3.52A89.725,89.725,0,0,0,456.694,5646.38Zm33.962,6.02a38.566,38.566,0,0,0-8.926,12.58,35.99,35.99,0,0,0-3.011,14.49q0,9.6,4.6,15.57a14.551,14.551,0,0,0,12.1,5.96,15.475,15.475,0,0,0,11.408-4.79,16.037,16.037,0,0,0,4.754-11.73,13.643,13.643,0,0,0-2.483-8.36q-2.48-3.36-8.292-6.35a21.97,21.97,0,0,1-5.282-3.57,5.013,5.013,0,0,1-1.479-3.57q0-8.415,17.958-18.12l-2.112-3.52q-12.36,5.01-19.226,11.41h0Z" transform="translate(-437 -5641)"></path> </svg> 