<svg width="20" height="20" viewBox="0 0 20 20" fill="none" xmlns="http://www.w3.org/2000/svg">
<path fill-rule="evenodd" clip-rule="evenodd" d="M2.10001 15C2.10001 14.5029 2.50295 14.1 3.00001 14.1H17C17.4971 14.1 17.9 14.5029 17.9 15C17.9 15.497 17.4971 15.9 17 15.9H3.00001C2.50295 15.9 2.10001 15.497 2.10001 15Z" fill="#333333"/>
<path fill-rule="evenodd" clip-rule="evenodd" d="M2.10001 9.99998C2.10001 9.50292 2.50295 9.09998 3.00001 9.09998H17C17.4971 9.09998 17.9 9.50292 17.9 9.99998C17.9 10.497 17.4971 10.9 17 10.9H3.00001C2.50295 10.9 2.10001 10.497 2.10001 9.99998Z" fill="#333333"/>
<path fill-rule="evenodd" clip-rule="evenodd" d="M2.10001 4.99998C2.10001 4.50292 2.50295 4.09998 3.00001 4.09998H17C17.4971 4.09998 17.9 4.50292 17.9 4.99998C17.9 5.49703 17.4971 5.89998 17 5.89998H3.00001C2.50295 5.89998 2.10001 5.49703 2.10001 4.99998Z" fill="#333333"/>
</svg>
