<svg width="32" height="32" viewBox="0 0 32 32" fill="none" xmlns="http://www.w3.org/2000/svg">
<circle cx="16" cy="16" r="16" fill="#F79A38"/>
<path d="M20.6746 17.8462C21.0581 17.4716 21.1129 16.9365 20.7842 16.4013C20.5102 15.9732 20.0172 15.7592 19.4693 15.8662C19.2502 15.9197 19.0311 16.0268 18.8119 16.1873C17.1136 17.311 14.8127 17.2575 13.1143 16.1338C13.0048 16.0803 12.8952 16.0268 12.7856 15.9732C12.183 15.7057 11.5804 15.8127 11.2517 16.3478C10.8682 16.883 10.923 17.4716 11.416 17.9532C11.5256 18.0602 11.6352 18.1137 11.6899 18.2207L11.7447 18.2742C12.5117 18.8629 13.443 19.2375 14.6483 19.398L13.9361 20.0937C13.3335 20.6823 12.6761 21.3244 12.0734 21.913C11.9091 22.0736 11.6899 22.3411 11.6899 22.7157C11.6899 23.1973 11.9639 23.6789 12.4569 23.893C12.6213 24 12.7856 24 12.95 24C13.2239 24 13.5526 23.893 13.7717 23.6254C14.5935 22.8227 15.2509 22.1806 15.9083 21.5385C15.9631 21.485 15.9631 21.485 15.9631 21.485C15.9631 21.485 16.0179 21.485 16.0179 21.5385C16.4562 22.0201 16.9493 22.4482 17.3875 22.9298C17.6067 23.1438 17.8258 23.3579 18.0449 23.5719C18.3189 23.8395 18.538 23.9465 18.8667 23.9465C19.3598 24 19.9076 23.6789 20.1268 23.1973C20.3459 22.7692 20.2363 22.2341 19.8528 21.913C19.305 21.3779 18.7571 20.7893 18.1545 20.2542L17.2232 19.3445C17.7162 19.291 18.2641 19.184 18.7571 18.9699C19.5789 18.7023 20.1815 18.3278 20.6746 17.8462Z" fill="white"/>
<path d="M15.9631 16.3478C18.3189 16.3478 20.2363 14.5284 20.2363 12.2274C20.2363 11.1037 19.798 10.0334 18.9763 9.23077C18.1545 8.4281 17.1136 8 16.0179 8C13.6622 8 11.7995 9.87291 11.7447 12.1204C11.7447 13.2441 12.183 14.2609 13.0048 15.0635C13.7718 15.9197 14.8127 16.3478 15.9631 16.3478ZM14.7579 10.9967C15.0866 10.6756 15.5249 10.515 15.9631 10.515C16.9492 10.515 17.6615 11.2642 17.6615 12.1739C17.6615 13.1371 16.8945 13.8328 15.9631 13.8328C14.977 13.8328 14.2648 13.0836 14.2648 12.1739C14.2648 11.7458 14.4292 11.3177 14.7579 10.9967Z" fill="white"/>
<path d="M20.6746 17.8462C21.0581 17.4716 21.1129 16.9365 20.7842 16.4013C20.5102 15.9732 20.0172 15.7592 19.4693 15.8662C19.2502 15.9197 19.0311 16.0268 18.8119 16.1873C17.1136 17.311 14.8127 17.2575 13.1143 16.1338C13.0048 16.0803 12.8952 16.0268 12.7856 15.9732C12.183 15.7057 11.5804 15.8127 11.2517 16.3478C10.8682 16.883 10.923 17.4716 11.416 17.9532C11.5256 18.0602 11.6352 18.1137 11.6899 18.2207L11.7447 18.2742C12.5117 18.8629 13.443 19.2375 14.6483 19.398L13.9361 20.0937C13.3335 20.6823 12.6761 21.3244 12.0734 21.913C11.9091 22.0736 11.6899 22.3411 11.6899 22.7157C11.6899 23.1973 11.9639 23.6789 12.4569 23.893C12.6213 24 12.7856 24 12.95 24C13.2239 24 13.5526 23.893 13.7717 23.6254C14.5935 22.8227 15.2509 22.1806 15.9083 21.5385C15.9631 21.485 15.9631 21.485 15.9631 21.485C15.9631 21.485 16.0179 21.485 16.0179 21.5385C16.4562 22.0201 16.9493 22.4482 17.3875 22.9298C17.6067 23.1438 17.8258 23.3579 18.0449 23.5719C18.3189 23.8395 18.538 23.9465 18.8667 23.9465C19.3598 24 19.9076 23.6789 20.1268 23.1973C20.3459 22.7692 20.2363 22.2341 19.8528 21.913C19.305 21.3779 18.7571 20.7893 18.1545 20.2542L17.2232 19.3445C17.7162 19.291 18.2641 19.184 18.7571 18.9699C19.5789 18.7023 20.1815 18.3278 20.6746 17.8462Z" fill="white"/>
</svg>
