<svg width="32" height="32" viewBox="0 0 32 32" fill="none" xmlns="http://www.w3.org/2000/svg">
<path d="M16 32C24.8366 32 32 24.8366 32 16C32 7.16344 24.8366 0 16 0C7.16344 0 0 7.16344 0 16C0 24.8366 7.16344 32 16 32Z" fill="#0077FF"/>
<path d="M24.8993 21.0311C24.8762 20.9853 24.8548 20.9474 24.8349 20.917C24.5052 20.3693 23.8753 19.6971 22.9454 18.9001L22.9258 18.8818L22.9159 18.8728L22.9059 18.8637H22.896C22.474 18.4926 22.2067 18.243 22.0948 18.1153C21.8901 17.8719 21.8442 17.6256 21.9561 17.376C22.0351 17.1874 22.3321 16.7892 22.8464 16.1807C23.117 15.8582 23.3311 15.5998 23.4893 15.405C24.6304 14.0057 25.1251 13.1116 24.9732 12.7221L24.9143 12.6311C24.8747 12.5763 24.7725 12.5263 24.6078 12.4805C24.4428 12.4349 24.2319 12.4273 23.9745 12.4578L21.1256 12.4759C21.0794 12.4609 21.0135 12.4623 20.9276 12.4805C20.8419 12.4988 20.799 12.5079 20.799 12.5079L20.7494 12.5309L20.71 12.5583C20.6771 12.5764 20.6407 12.6084 20.6012 12.654C20.5618 12.6995 20.5289 12.7529 20.5026 12.8137C20.1923 13.5499 19.8397 14.2342 19.4439 14.867C19.1999 15.2442 18.9757 15.5711 18.771 15.848C18.5667 16.1247 18.3952 16.3286 18.2569 16.4592C18.1182 16.5901 17.9932 16.6949 17.8808 16.7741C17.7687 16.8533 17.6831 16.8868 17.6238 16.8745C17.5643 16.8622 17.5084 16.8501 17.4553 16.8379C17.3631 16.7831 17.2889 16.7087 17.2329 16.6144C17.1768 16.5201 17.1389 16.4014 17.1192 16.2585C17.0994 16.1154 17.0878 15.9923 17.0845 15.8889C17.0814 15.7855 17.0828 15.6393 17.0895 15.4509C17.0964 15.2621 17.0994 15.1344 17.0994 15.0675C17.0994 14.8364 17.1043 14.5854 17.1141 14.3146C17.1241 14.0439 17.1322 13.8294 17.1389 13.6714C17.1456 13.5132 17.1488 13.3459 17.1488 13.1694C17.1488 12.993 17.1372 12.8546 17.1141 12.7541C17.0914 12.6539 17.0565 12.5566 17.0105 12.4621C16.9642 12.3678 16.8966 12.2949 16.8077 12.2432C16.7188 12.1914 16.6081 12.1504 16.4763 12.1199C16.1267 12.0469 15.6816 12.0075 15.1408 12.0013C13.9141 11.9891 13.126 12.0622 12.7764 12.2204C12.638 12.2872 12.5127 12.3786 12.4006 12.494C12.2819 12.628 12.2653 12.7011 12.3511 12.713C12.7468 12.7677 13.027 12.8986 13.1919 13.1054L13.2513 13.215C13.2975 13.2941 13.3436 13.4341 13.3898 13.6348C13.436 13.8356 13.4657 14.0576 13.4788 14.3008C13.5117 14.745 13.5117 15.1252 13.4788 15.4415C13.4457 15.7579 13.4145 16.0042 13.3848 16.1807C13.355 16.3571 13.3106 16.5001 13.2513 16.6096C13.1919 16.7191 13.1522 16.7861 13.1325 16.8104C13.1127 16.8347 13.0962 16.85 13.0831 16.8559C12.9973 16.8862 12.9083 16.9017 12.8159 16.9017C12.7236 16.9017 12.6115 16.8591 12.4796 16.7738C12.3478 16.6886 12.211 16.5715 12.0691 16.4226C11.9274 16.2733 11.7674 16.065 11.5893 15.7974C11.4112 15.5297 11.2265 15.2134 11.0354 14.8484L10.877 14.5836C10.7781 14.4134 10.643 14.1654 10.4716 13.84C10.2999 13.5145 10.1483 13.1996 10.0165 12.8953C9.96377 12.7676 9.88461 12.6704 9.77909 12.6034L9.72957 12.576C9.69663 12.5516 9.64381 12.5258 9.57136 12.4984C9.49878 12.4709 9.42304 12.4513 9.34374 12.4391L6.63324 12.4572C6.35626 12.4572 6.16833 12.5152 6.06936 12.6308L6.02977 12.6854C6.00998 12.7159 6 12.7645 6 12.8315C6 12.8985 6.01979 12.9806 6.05939 13.0778C6.45507 13.9357 6.88539 14.7631 7.3503 15.56C7.81522 16.357 8.21922 16.999 8.56208 17.4854C8.90497 17.9722 9.25457 18.4315 9.61063 18.8634C9.96681 19.2954 10.2025 19.5722 10.3179 19.6938C10.4335 19.8157 10.5241 19.9067 10.59 19.9676L10.8374 20.1865C10.9957 20.3326 11.2282 20.5075 11.5348 20.7112C11.8416 20.9151 12.1812 21.1158 12.5537 21.3138C12.9265 21.5112 13.36 21.6725 13.8547 21.7972C14.3493 21.922 14.8307 21.9721 15.299 21.9479H16.4367C16.6673 21.9295 16.8421 21.8626 16.961 21.7471L17.0004 21.7013C17.0268 21.665 17.0517 21.6087 17.0745 21.5327C17.0976 21.4567 17.1092 21.3729 17.1092 21.2817C17.1023 21.0202 17.124 20.7846 17.1732 20.5747C17.2226 20.3648 17.2788 20.2066 17.3416 20.1001C17.4044 19.9937 17.4753 19.9039 17.5543 19.8311C17.6333 19.7581 17.6897 19.7139 17.7227 19.6987C17.7555 19.6834 17.7818 19.673 17.8015 19.6668C17.9598 19.6181 18.1462 19.6652 18.3606 19.8083C18.5751 19.9513 18.7761 20.1278 18.9642 20.3376C19.1522 20.5476 19.378 20.7832 19.6417 21.0448C19.9057 21.3064 20.1364 21.501 20.3342 21.6289L20.5319 21.7384C20.6641 21.8114 20.8356 21.8784 21.0466 21.9391C21.2574 22 21.4419 22.0152 21.6005 21.9848L24.1328 21.9484C24.3832 21.9484 24.5782 21.91 24.7165 21.8342C24.8549 21.7581 24.9373 21.6744 24.9637 21.5832C24.9902 21.4921 24.9917 21.3885 24.9688 21.2729C24.9454 21.1574 24.9222 21.0767 24.8993 21.0311Z" fill="white"/>
</svg>
